<?xml version="1.0" standalone="no"?>
<!DOCTYPE svg PUBLIC "-//W3C//DTD SVG 20010904//EN"
 "http://www.w3.org/TR/2001/REC-SVG-20010904/DTD/svg10.dtd">
<svg version="1.0" xmlns="http://www.w3.org/2000/svg"
 width="4000.000000pt" height="4000.000000pt" viewBox="0 0 4000.000000 4000.000000"
 preserveAspectRatio="xMidYMid meet">
<metadata>
Created by potrace 1.14, written by Peter Selinger 2001-2017
</metadata>
<g transform="translate(0.000000,4000.000000) scale(0.100000,-0.100000)"
fill="#000000" stroke="none">
<path d="M23815 38796 c-67 -41 -85 -86 -101 -249 -108 -1133 -203 -3020 -204
-4040 l0 -147 -85 69 c-274 225 -592 378 -935 452 -124 27 -421 37 -553 19
-498 -67 -941 -354 -1311 -847 -318 -425 -521 -904 -577 -1366 -11 -90 -14
-96 -33 -92 -92 21 -620 89 -846 109 -564 52 -1183 55 -1695 11 -1352 -118
-2140 -525 -2271 -1174 -25 -125 -15 -341 20 -475 15 -55 23 -103 19 -107 -5
-5 -71 -45 -148 -90 -260 -152 -509 -324 -720 -500 -148 -123 -473 -452 -616
-624 -834 -1003 -1453 -2368 -1874 -4138 -40 -166 -50 -197 -64 -193 -27 9
-281 54 -381 68 -61 8 -192 13 -365 13 -243 -1 -281 -3 -375 -24 -444 -96
-704 -329 -802 -718 -20 -76 -22 -114 -22 -283 0 -172 3 -210 27 -320 88 -419
296 -844 590 -1210 100 -125 291 -313 399 -394 l76 -57 -64 -95 c-163 -241
-244 -480 -244 -722 0 -297 116 -571 343 -808 56 -59 87 -99 87 -114 0 -12
-155 -924 -345 -2027 -190 -1102 -345 -2022 -345 -2044 0 -22 9 -57 19 -78 22
-43 214 -231 438 -429 124 -110 152 -139 148 -156 -13 -52 -220 -1169 -365
-1966 -543 -2983 -1031 -5855 -1354 -7970 -429 -2802 -552 -4144 -406 -4429
25 -50 60 -77 123 -96 186 -55 428 45 789 328 1342 1048 4684 5031 8941 10653
153 203 141 194 276 194 188 0 565 42 774 86 202 43 216 50 342 178 278 280
1124 1317 2328 2853 l88 112 112 54 c320 153 604 392 800 670 34 49 67 95 72
103 8 11 33 6 145 -30 224 -74 442 -126 680 -163 85 -13 174 -18 340 -18 194
0 241 3 338 23 256 52 436 139 595 291 423 403 386 1148 -84 1727 -82 101
-207 214 -322 292 l-98 66 43 35 c70 56 348 339 424 431 599 726 1135 1814
1529 3105 247 811 335 1311 352 2021 l6 270 37 22 c92 53 207 188 275 321 73
145 128 332 162 551 25 161 25 618 0 805 -114 847 -474 1634 -1078 2355 -126
151 -393 425 -543 560 -146 130 -590 497 -948 783 l-287 229 86 106 c322 405
567 914 671 1397 43 199 54 298 54 480 -2 559 -254 1023 -724 1329 -273 178
-660 296 -968 296 l-49 0 124 253 c227 465 455 1029 752 1867 299 843 773
2324 773 2415 0 84 -47 150 -122 173 -19 6 -305 15 -688 21 -360 6 -765 13
-900 17 l-245 5 -40 -25z m1113 -362 c248 -4 452 -10 452 -14 0 -14 -243 -780
-362 -1140 -412 -1250 -844 -2390 -1086 -2865 l-51 -100 0 240 c-2 815 58
2151 149 3326 17 212 33 422 36 465 3 43 8 85 10 93 4 11 38 13 202 7 108 -3
401 -9 650 -12z m-2273 -4500 c154 -32 313 -99 358 -154 89 -105 32 -270 -105
-300 -57 -13 -62 -12 -196 45 -102 43 -192 58 -312 52 -243 -12 -425 -118
-518 -302 -44 -89 -69 -117 -124 -140 -127 -53 -275 62 -254 196 21 129 154
316 305 428 129 96 326 172 496 190 97 11 255 4 350 -15z m-1197 -1295 c51
-25 91 -81 99 -136 6 -49 -33 -234 -62 -293 -13 -25 -34 -55 -47 -67 -57 -53
-159 -68 -226 -34 -96 49 -127 155 -77 263 14 29 25 63 25 75 0 70 69 178 130
202 43 17 111 12 158 -10z m-2528 -809 c90 -34 135 -100 128 -190 -5 -76 -37
-122 -103 -155 l-51 -25 -179 11 c-210 13 -516 6 -695 -16 -324 -41 -587 -125
-780 -249 -39 -26 -90 -51 -113 -57 -110 -29 -227 64 -227 180 0 85 39 135
167 212 235 142 540 240 888 283 186 24 188 24 570 21 265 -2 369 -6 395 -15z
m525 -2159 c83 -37 128 -126 107 -207 -19 -69 -37 -90 -131 -146 -112 -68
-256 -211 -340 -338 -68 -104 -153 -266 -226 -430 -25 -58 -56 -115 -68 -128
-110 -118 -309 -53 -325 107 -4 41 3 65 44 162 202 480 464 814 761 970 65 34
119 37 178 10z m-3901 -98 c50 -36 80 -93 80 -153 0 -77 -28 -115 -150 -208
-359 -271 -625 -614 -854 -1102 -57 -123 -83 -158 -134 -181 -111 -50 -234 9
-265 129 -15 54 -6 87 59 226 206 435 484 822 775 1076 124 109 280 225 319
239 50 17 126 5 170 -26z m7032 -2518 c59 -35 88 -85 88 -155 1 -45 -9 -77
-52 -174 -29 -66 -62 -132 -73 -148 -51 -72 -170 -90 -250 -39 -56 35 -84 87
-83 156 0 38 12 78 52 169 29 66 62 132 73 148 50 69 166 89 245 43z m-9762
-391 c509 -510 1272 -740 2559 -771 147 -3 267 -8 267 -10 0 -3 -18 -35 -39
-72 -75 -128 -134 -289 -167 -456 -25 -125 -25 -402 0 -540 36 -199 116 -423
219 -615 200 -373 534 -730 863 -922 63 -38 106 -54 205 -77 320 -77 583 -111
851 -111 367 0 644 61 919 201 191 98 347 214 528 392 l114 112 -6 -95 c-32
-481 -33 -681 -2 -912 65 -496 281 -868 672 -1162 109 -82 125 -89 264 -126
386 -101 810 -72 1214 85 243 94 523 257 745 435 58 47 171 149 252 229 94 92
149 139 152 130 3 -8 15 -50 27 -94 52 -193 160 -419 356 -741 195 -324 280
-468 323 -554 45 -89 130 -192 285 -344 408 -401 891 -640 1435 -712 98 -13
174 -15 355 -11 127 3 243 9 260 13 l29 7 -39 -54 c-169 -237 -458 -543 -620
-657 -49 -35 -126 -81 -170 -102 -118 -56 -155 -102 -155 -190 0 -63 30 -122
77 -151 17 -11 65 -29 105 -40 103 -28 262 -108 355 -178 292 -220 493 -605
493 -943 0 -305 -163 -535 -449 -633 -132 -45 -252 -58 -464 -52 -300 8 -544
58 -950 194 -221 75 -229 77 -273 65 -70 -19 -90 -37 -154 -144 -117 -194
-266 -368 -425 -497 -535 -436 -1247 -501 -1906 -175 -544 270 -1026 789
-1393 1502 -82 159 -108 184 -197 190 -34 3 -72 -1 -89 -8 -43 -18 -97 -82
-110 -132 -51 -191 -237 -309 -556 -354 -144 -20 -524 -14 -698 10 -641 92
-1304 302 -1951 621 -968 476 -1619 1086 -1730 1620 -30 149 -13 337 45 470
54 125 2 246 -117 273 -35 8 -71 3 -210 -28 -286 -64 -516 -90 -790 -90 -1034
0 -1933 448 -2084 1038 -34 135 -23 305 31 450 48 127 147 281 269 417 80 88
101 127 101 188 0 73 -60 143 -151 177 -304 114 -714 614 -923 1126 -146 358
-177 712 -81 922 164 359 694 453 1498 266 141 -32 187 -38 232 -30 36 7 97
53 116 87 5 10 32 119 60 241 99 442 218 882 345 1276 36 112 70 216 75 230
l11 27 41 -50 c22 -27 90 -100 151 -161z m4014 -1063 c70 -36 112 -97 112
-163 0 -16 -27 -96 -59 -176 -123 -306 -151 -428 -117 -511 48 -122 -22 -250
-146 -267 -185 -26 -292 202 -232 494 36 178 162 506 218 570 60 68 152 90
224 53z m3705 -2604 c45 -19 105 -89 113 -132 3 -20 4 -51 1 -69 -6 -40 -101
-259 -128 -297 -40 -56 -146 -85 -216 -58 -64 24 -122 109 -123 178 0 44 104
287 139 324 57 62 143 83 214 54z m-9033 -2528 c253 -143 637 -272 978 -329
60 -10 72 -15 68 -28 -20 -66 -266 -1033 -266 -1044 0 -11 -668 -2618 -751
-2930 -5 -21 -13 -38 -17 -38 -18 0 -455 376 -644 555 l-98 92 245 1419 c134
780 281 1626 325 1879 44 253 80 461 80 463 0 5 12 0 80 -39z m2307 -456 c0
-89 6 -169 17 -226 85 -440 400 -873 947 -1299 l97 -75 -215 -549 c-118 -302
-225 -580 -237 -619 -23 -67 -955 -2466 -962 -2474 -7 -8 -440 258 -756 465
-244 160 -445 300 -687 478 -91 67 -169 124 -174 127 -8 6 738 2932 766 3004
6 16 81 302 167 635 l156 605 265 6 c237 5 429 22 564 49 22 4 43 8 46 9 3 1
6 -61 6 -136z m1603 -1945 c657 -379 1502 -687 2228 -812 79 -13 145 -26 147
-28 2 -2 -122 -235 -276 -518 -154 -283 -293 -542 -308 -575 -32 -68 -1358
-2506 -1369 -2517 -14 -14 -435 159 -827 338 -231 106 -818 400 -1047 525
l-187 102 23 61 c106 279 911 2334 920 2350 7 12 116 287 242 613 l229 591 35
-20 c19 -12 105 -61 190 -110z m4072 -837 c64 -97 165 -237 224 -311 103 -128
341 -377 450 -471 l51 -44 -1146 -1632 c-630 -897 -1148 -1634 -1151 -1637
-18 -18 -696 90 -1008 160 -300 67 -727 187 -719 202 2 4 318 585 702 1292
383 707 712 1308 729 1335 18 28 157 280 310 561 l277 511 140 1 c394 5 702
94 906 263 l58 48 30 -51 c17 -28 83 -130 147 -227z m1076 -1074 c186 -117
443 -224 672 -282 179 -45 302 -59 512 -60 109 0 198 -1 198 -2 0 -4 -729
-924 -1060 -1338 -568 -710 -911 -1125 -1012 -1223 -50 -48 -84 -60 -268 -92
-187 -32 -368 -49 -660 -62 -267 -11 -594 -5 -588 12 8 21 2154 3070 2161
3070 4 0 24 -10 45 -23z m-9068 -524 c288 -223 631 -468 948 -678 100 -66 162
-113 162 -124 0 -9 13 -205 30 -436 16 -230 28 -420 27 -420 -1 -1 -204 -93
-452 -205 -247 -112 -452 -207 -455 -210 -8 -10 -770 -353 -774 -349 -2 2 -12
122 -22 267 l-18 263 47 257 c76 416 221 1196 276 1485 28 148 51 273 51 279
0 7 4 7 13 1 6 -5 82 -64 167 -130z m1681 -1136 c96 -57 198 -116 226 -133
l52 -30 -212 -96 -212 -96 -11 157 c-7 86 -15 189 -18 229 -3 39 -4 72 -2 72
2 0 82 -46 177 -103z m891 -494 c194 -102 695 -345 880 -428 87 -38 87 -39 92
-79 12 -89 48 -685 43 -698 -3 -8 -259 -131 -568 -273 -310 -142 -570 -263
-577 -268 -17 -14 -742 -347 -753 -347 -5 0 -9 12 -9 28 0 15 -9 153 -20 307
-11 154 -22 339 -25 410 -3 72 -21 346 -39 610 -19 264 -34 480 -33 481 4 2
802 363 804 364 1 0 93 -48 205 -107z m-1352 -748 c11 -170 24 -341 30 -380
13 -94 83 -1125 77 -1132 -12 -11 -1679 -774 -1684 -770 -9 10 -134 1840 -126
1848 9 8 1038 474 1068 483 11 3 153 66 315 140 162 74 296 131 297 127 1 -3
11 -145 23 -316z m3143 -47 c37 -12 67 -25 67 -28 0 -8 -462 -221 -467 -216
-3 3 -32 350 -33 397 0 3 82 -25 183 -63 100 -38 212 -78 250 -90z m1167 -317
c401 -81 755 -129 1107 -151 98 -7 197 -15 221 -18 l43 -7 -217 -285 c-120
-157 -340 -445 -489 -640 l-273 -355 -892 -405 c-490 -223 -895 -406 -899
-408 -11 -4 -75 784 -86 1058 -3 69 -16 289 -30 488 -15 200 -25 371 -23 379
2 10 194 103 498 243 l494 227 151 -39 c82 -21 260 -60 395 -87z m-1885 -811
c10 -146 19 -268 21 -272 5 -8 94 -1266 94 -1323 l0 -40 -953 -432 c-523 -237
-954 -430 -957 -427 -8 9 -139 1929 -132 1935 9 8 1181 545 1207 553 11 3 171
75 355 160 318 146 335 153 341 133 4 -12 15 -141 24 -287z m-4410 -515 c24
-363 47 -683 50 -710 l6 -51 -192 -87 c-105 -48 -193 -86 -194 -85 -4 3 38
251 175 1039 55 317 101 580 101 585 4 24 12 -79 54 -691z m2195 -1190 c36
-522 64 -953 61 -957 -8 -9 -1683 -769 -1687 -765 -9 8 -135 1920 -128 1927 5
5 385 182 844 393 654 300 836 380 839 368 2 -9 34 -443 71 -966z m3993 413
c-6 -7 -154 -198 -329 -423 -504 -649 -869 -1113 -872 -1110 -2 2 -19 218 -37
481 -27 376 -32 481 -22 487 16 12 1250 575 1261 576 5 1 4 -5 -1 -11z m-6103
-405 c0 -16 29 -446 65 -956 36 -511 65 -931 65 -934 0 -9 -145 -71 -151 -65
-16 17 -149 518 -225 847 -53 231 -171 819 -180 897 l-6 53 199 91 c109 51
206 92 216 93 12 1 17 -7 17 -26z m4470 -356 c0 -13 18 -279 40 -591 22 -311
40 -581 40 -599 0 -28 -44 -89 -296 -406 l-297 -372 -636 -319 -637 -318 -17
221 c-62 813 -113 1543 -108 1549 8 9 1452 666 1526 694 33 12 128 54 210 92
83 39 156 71 163 71 6 1 12 -10 12 -22z m-5016 -1084 c161 -665 368 -1298 608
-1863 108 -254 338 -714 462 -925 242 -410 551 -829 819 -1112 63 -67 68 -75
55 -91 -163 -193 -703 -810 -907 -1037 -627 -695 -1217 -1294 -1601 -1625
-206 -177 -470 -360 -521 -360 -28 0 5 584 67 1145 138 1266 529 3895 925
6224 2 11 26 -81 93 -356z m2750 55 c8 -49 107 -1495 112 -1635 l5 -122 -73
-39 c-114 -63 -1470 -744 -1473 -740 -10 10 -156 296 -160 313 -11 48 -106
1490 -98 1492 4 2 382 174 838 382 457 209 833 379 837 380 4 1 9 -14 12 -31z
m-2040 -995 c4 -54 9 -120 12 -148 4 -27 4 -48 1 -45 -7 8 -87 240 -87 254 0
10 36 31 61 35 4 1 10 -43 13 -96z m3219 -655 c-30 -40 -462 -571 -543 -668
l-95 -115 -16 225 c-9 124 -15 226 -14 227 2 3 669 342 674 343 2 0 -1 -6 -6
-12z m-1033 -525 c0 -5 11 -158 25 -342 19 -264 22 -338 12 -350 -29 -38 -569
-685 -645 -774 l-84 -98 -25 23 c-14 13 -74 80 -135 149 -243 280 -546 696
-522 718 13 12 1354 679 1367 680 4 1 7 -2 7 -6z"/>
<path d="M14060 35574 c-215 -57 -433 -246 -520 -450 -54 -124 -72 -213 -77
-374 -6 -180 12 -313 71 -517 132 -458 461 -1041 815 -1447 147 -168 246 -245
351 -272 152 -39 310 38 379 185 l26 56 -1 395 c-1 572 -34 969 -115 1386
-122 630 -323 957 -636 1038 -76 20 -219 20 -293 0z"/>
<path d="M11832 32749 c-158 -20 -299 -102 -412 -242 -60 -73 -124 -197 -145
-282 -22 -88 -20 -244 6 -335 80 -291 353 -575 803 -834 207 -120 487 -248
724 -332 96 -35 137 -44 187 -44 128 0 246 74 302 188 23 49 27 69 27 142 0
82 -2 90 -58 215 -474 1058 -967 1582 -1434 1524z"/>
<path d="M30252 28670 c-350 -63 -723 -399 -1084 -975 -170 -271 -403 -728
-428 -841 -32 -141 53 -307 189 -367 77 -34 157 -34 337 2 878 177 1529 491
1781 861 46 68 88 157 114 240 33 106 34 290 1 405 -72 253 -271 503 -487 612
-112 57 -299 85 -423 63z"/>
<path d="M29280 24884 c-166 -11 -475 -47 -517 -59 -145 -43 -236 -164 -237
-315 -1 -113 30 -168 184 -336 386 -418 838 -761 1186 -898 272 -107 530 -108
732 -1 249 131 425 430 439 746 10 208 -46 365 -181 507 -173 182 -409 282
-796 338 -110 15 -663 28 -810 18z"/>
<path d="M28260 22298 c-76 -29 -160 -114 -188 -191 -68 -182 -49 -464 53
-772 153 -466 402 -725 695 -725 143 0 249 49 379 174 153 149 243 285 292
446 30 97 33 264 5 355 -69 229 -260 423 -558 565 -134 64 -246 105 -386 141
-136 35 -214 37 -292 7z"/>
</g>
</svg>
